<?xml version="1.0" encoding="utf-8"?>
<!-- Generator: Adobe Illustrator 19.1.0, SVG Export Plug-In . SVG Version: 6.00 Build 0)  -->
<svg version="1.1" id="Layer_1" xmlns="http://www.w3.org/2000/svg" xmlns:xlink="http://www.w3.org/1999/xlink" x="0px" y="0px"
	 viewBox="0 0 22 15" enable-background="new 0 0 22 15" xml:space="preserve">
<g id="password_hide_icon">
	<path id="XMLID_81_" fill="#B0BEC5" d="M11,0C6,0,1.7,3.1,0,7.5C1.7,11.9,6,15,11,15s9.3-3.1,11-7.5C20.3,3.1,16,0,11,0z M11,12.5
		c-2.8,0-5-2.2-5-5c0-2.8,2.2-5,5-5c2.8,0,5,2.2,5,5C16,10.3,13.8,12.5,11,12.5z"/>
	<path id="XMLID_78_" fill="#B0BEC5" d="M11,4.9c-1.4,0-2.6,1.2-2.6,2.6c0,1.4,1.2,2.6,2.6,2.6c1.4,0,2.6-1.2,2.6-2.6
		C13.6,6.1,12.4,4.9,11,4.9z"/>
</g>
</svg>
